<svg id="Layer_2" data-name="Layer 2" xmlns="http://www.w3.org/2000/svg" viewBox="0 0 2560.34 1552.22"><defs><style>.cls-1{fill:none;stroke:#ff8000;stroke-miterlimit:10;stroke-width:0.75px;}</style></defs><title>Lin</title><polyline class="cls-1" points="0.15 259.16 456.29 409.78 622.79 464.76 791.61 520.51"/><polyline class="cls-1" points="812.97 603.76 701.21 653.4 699.05 654.36 489.71 747.34 415.5 780.31 130.97 906.69 0.15 964.79"/><polyline class="cls-1" points="0.15 498.64 692.69 652.94 699.05 654.36 810.06 679.09 850.49 688.1 1044.76 731.38 1207.53 767.65"/><polyline class="cls-1" points="2560.15 95.96 2346.37 209.45 2030.66 377.05 1560.81 626.47 1560.81 626.48 1412.79 705.05 1380.55 722.17 1376.1 724.53"/><polyline class="cls-1" points="2560.15 260.03 2412.84 292.58 2412.83 292.59 2030.67 377.04 2030.66 377.05 1627.47 466.15"/><polyline class="cls-1" points="0.15 389.62 456.29 409.78 1234.25 444.18 1449.98 453.72 1556.16 458.41"/><polyline class="cls-1" points="0.15 432.82 622.79 464.76 984.72 483.33"/><polyline class="cls-1" points="2560.15 1110.14 1951.79 895.35 1513.42 740.58 1493.47 733.54 1412.79 705.05 1374.13 691.4 1282.91 659.2 1282.91 659.19 1111.51 598.68 1064.32 582.02"/><polyline class="cls-1" points="2560.15 944.47 2162.7 888.18 2162.69 888.18 1844.32 843.09"/><polyline class="cls-1" points="1841.69 1551.9 1841.46 1550.1 1808.52 1296.2 1778.73 1066.59 1767.91 983.17"/><polyline class="cls-1" points="0.15 746.18 415.5 780.31 684.22 802.39 684.23 802.39 758.84 808.52 763.24 808.88 996.15 828.02 1289.48 852.12 1405.05 861.62 1409.77 862.01 1412.52 862.23 1441.44 864.61 1681.86 884.36 1818.85 895.62"/><polyline class="cls-1" points="0.15 1230.93 501.12 1147.12 650.22 1122.17 866.38 1086.01 914.68 1077.93"/><polyline class="cls-1" points="0.15 899.32 130.97 906.69 661.37 936.57 716.07 939.65 866.93 948.15"/><polyline class="cls-1" points="2560.15 219.21 2412.83 292.59 1513.42 740.58 1477.91 758.26 1477.91 758.27 1437.99 778.15 1396.56 798.78 1373.94 810.05 1361.06 816.47 1289.48 852.12 956.07 1018.19"/><polyline class="cls-1" points="808.55 1550.1 1122.55 1141.5 1196.74 1044.97 1196.74 1044.96 1207.53 1030.92"/><polyline class="cls-1" points="632.93 1550.1 866.38 1086.01 891.87 1035.33 901.83 1015.54 968.57 882.85 996.15 828.02 1044.76 731.38 1073.87 673.51 1096.13 629.25 1111.51 598.68 1143.91 534.27"/><polyline class="cls-1" points="194.41 1550.1 501.12 1147.12 563.27 1065.47 661.37 936.57 749.45 820.84 749.46 820.84 758.83 808.52 758.84 808.52 767.46 797.19 850.49 688.1 869.96 662.51 869.97 662.51 914.68 603.76"/><polyline class="cls-1" points="1553.52 1550.1 1514.94 1365.43 1435.56 985.47 1412.14 873.38 1410.49 865.46 1409.77 862.01 1405.86 843.3 1396.56 798.78 1387.67 756.23 1380.55 722.17 1374.13 691.4 1341.3 534.27"/><polyline class="cls-1" points="2560.15 874.67 2162.7 888.18 1951.79 895.35 1724.81 903.07 1522.77 909.94"/><polyline class="cls-1" points="0.15 1117.11 563.27 1065.47 674.35 1055.28 891.87 1035.33 930.34 1031.81 1208.29 1006.32 1324.94 995.62 1328.84 995.26 1435.56 985.47 1460.69 983.17"/><polyline class="cls-1" points="1324.94 995.62 1325.39 1000.74 1325.39 1000.75 1349.37 1270.94 1374.14 1550.1"/><polyline class="cls-1" points="0.15 615.58 29.68 617.17 692.69 652.94 701.21 653.4 817.07 659.65 869.97 662.51 1073.87 673.51 1207.53 680.72"/><polyline class="cls-1" points="2560.15 0.36 1234.25 444.18 1234.24 444.18 1207.53 453.12"/><polyline class="cls-1" points="1982.4 1550.1 1808.52 1296.2 1626.85 1030.92"/><polyline class="cls-1" points="2560.15 1534.54 1778.73 1066.59 1441.45 864.61 1441.44 864.61 1419.35 851.38 1405.86 843.3 1387.28 832.18 1387.27 832.17 1361.06 816.47 1207.53 724.53"/><polyline class="cls-1" points="979.85 1550.1 1105.35 1350.59 1105.35 1350.58 1206.67 1189.5 1325.39 1000.75 1328.84 995.26 1328.85 995.26 1408.9 867.99 1410.49 865.46 1412.52 862.23 1419.35 851.38 1459.51 787.52 1477.91 758.26 1493.47 733.54 1560.81 626.47 1588.77 582.02"/><polyline class="cls-1" points="2560.15 151.19 2346.37 209.45 1449.98 453.72 1449.96 453.72 1341.3 483.33"/><polyline class="cls-1" points="1820.48 1550.1 1810.99 1534.38 1412.14 873.38 1412.14 873.36 1408.9 867.99 1405.05 861.62 1387.28 832.18 1373.94 810.05 1324.98 728.92 1282.91 659.2 1207.53 534.27"/><polyline class="cls-1" points="689.45 1550.1 1042.86 1096.02 1080.61 1047.52"/><polyline class="cls-1" points="0.15 608.81 29.68 617.17 489.71 747.34 684.23 802.39 749.45 820.84 758.05 823.28 968.57 882.85 1064.32 909.94"/><polyline class="cls-1" points="2560.15 1266.9 2056.93 1047.73 1724.81 903.07 1681.86 884.36 1681.85 884.36 1459.51 787.52 1437.99 778.15 1387.67 756.23 1324.98 728.92 1096.13 629.25 878.07 534.27"/><polyline class="cls-1" points="2560.15 1164.4 2056.93 1047.73 1627.47 948.15"/><polyline class="cls-1" points="1841.69 1551.9 1838.54 1550.1 1810.99 1534.38 1514.94 1365.43 1349.37 1270.94 1206.67 1189.5 1161.26 1163.59 1122.55 1141.5 1042.86 1096.02 930.34 1031.81 901.83 1015.54 866.93 995.62"/><polyline class="cls-1" points="1045.69 1550.1 1105.35 1350.59 1161.26 1163.59 1196.74 1044.97 1208.29 1006.32 1237.37 909.08"/><polyline class="cls-1" points="495.85 1550.1 650.22 1122.17 650.23 1122.17 674.35 1055.28 674.36 1055.28 716.07 939.65 758.05 823.28 763.24 808.88 767.46 797.19 810.06 679.09 817.07 659.65 817.08 659.65 824.2 639.9"/></svg>