<svg xmlns="http://www.w3.org/2000/svg" viewBox="0 0 1922.36 1081.94">
					<line class="cls-1" x1="606.27" y1="337.5" x2="0.27" y2="117.5"/>
					<line class="cls-1" x1="606.27" y1="390.5" x2="0.27" y2="651.5"/>
					<line class="cls-1" x1="914.77" y1="350" x2="1436.77" y2="1081"/>
					<line class="cls-1" x1="452.77" y1="1081" x2="673.77" y2="416"/>
					<line class="cls-1" x1="623.77" y1="440" x2="258.77" y2="1081"/>
					<line class="cls-1" x1="661.27" y1="350.5" x2="1921.27" y2="815.5"/>
					<line class="cls-1" x1="762.27" y1="415.5" x2="829.27" y2="1081.5"/>
					<line class="cls-1" x1="787.27" y1="359.5" x2="1921.27" y2="727.5"/>
					<line class="cls-1" x1="739.27" y1="329.5" x2="1.27" y2="288.5"/>
					<line class="cls-1" x1="787.27" y1="316.5" x2="1920.27" y2="296.5"/>
					<line class="cls-1" x1="749.27" y1="359.5" x2="0.27" y2="845.5"/>
					<line class="cls-1" x1="857.27" y1="369.5" x2="538.27" y2="1081.5"/>
					<line class="cls-1" x1="1012.27" y1="369.5" x2="1175.27" y2="1081.5"/>
					<line class="cls-1" x1="1055.27" y1="296.5" x2="1921.27" y2="95.5"/>
					<line class="cls-1" x1="1012.27" y1="329.5" x2="0.27" y2="390.5"/>
					<line class="cls-1" x1="1075.27" y1="359.5" x2="1744.27" y2="1081.5"/>
					<line class="cls-1" x1="1192.27" y1="390.5" x2="990.27" y2="1081.5"/>
					<line class="cls-1" x1="1218.39" y1="316.5" x2="1920.27" y2="161.5"/>
					<line class="cls-1" x1="1168.51" y1="316.5" x2="0.27" y2="175.5"/>
					<line class="cls-1" x1="907.27" y1="474.5" x2="0.27" y2="474.5"/>
					<line class="cls-1" x1="914.27" y1="564.5" x2="0.27" y2="1081.5"/>
					<line class="cls-1" x1="932.27" y1="491.5" x2="1921.27" y2="239.5"/>
					<line class="cls-1" x1="974.27" y1="564.5" x2="400.27" y2="1081.5"/>
					<line class="cls-1" x1="960.27" y1="504.5" x2="0.27" y2="504.5"/>
					<line class="cls-1" x1="1031.27" y1="501.5" x2="1921.27" y2="58.5"/>
					<line class="cls-1" x1="680.27" y1="651.5" x2="1.27" y2="540.5"/>
					<line class="cls-1" x1="687.27" y1="765.77" x2="0.27" y2="1021.5"/>
					<line class="cls-1" x1="709.61" y1="715.5" x2="1354.27" y2="1081.5"/>
					<line class="cls-1" x1="811.27" y1="736.5" x2="644.27" y2="1081.5"/>
					<line class="cls-1" x1="795.77" y1="639.96" x2="0.27" y2="691.5"/>
					<line class="cls-1" x1="823.27" y1="658.5" x2="1921.27" y2="639.5"/>
					<line class="cls-1" x1="914.27" y1="736.5" x2="901.27" y2="1081.5"/>
					<line class="cls-1" x1="932.27" y1="632.5" x2="1921.27" y2="141.5"/>
					<line class="cls-1" x1="990.27" y1="715.5" x2="1270.27" y2="1081.5"/>
					<line class="cls-1" x1="914.27" y1="672.5" x2="0.27" y2="765.5"/>
					<line class="cls-1" x1="1144.27" y1="639.5" x2="1921.27" y2="893.5"/>
					<line class="cls-1" x1="1031.27" y1="555.5" x2="1920.27" y2="691.5"/>
					<line class="cls-1" x1="1094.27" y1="679.5" x2="316.27" y2="1081.5"/>
					<line class="cls-1" x1="1100.27" y1="665.5" x2="1596.27" y2="1081.5"/>
					<line class="cls-1" x1="1222.27" y1="727.5" x2="1642.27" y2="1081.5"/>
					<line class="cls-1" x1="1332.27" y1="691.5" x2="1082.27" y2="1081.5"/>
					<line class="cls-1" x1="1213.27" y1="672.5" x2="0.27" y2="583.5"/>
					<line class="cls-1" x1="1379.27" y1="595.5" x2="1920.77" y2="1"/>
					<line x1="1920.77" y1="1" x2="900.77" y2="307"/>
				</svg>